# xmcd CD database file
#
# Track frame offsets:
#	150
#	10726
#	25148
#	39621
#	64755
#	80436
#	97693
#	116566
#	134882
#	156790
#	179480
#	192192
#	203521
#	225883
#	244238
#
# Disc length: 3578 seconds
#
# Revision: 0
# Processed by: cddbd v1.5.2PL0 Copyright (c) Steve Scherf et al.
# Submitted via: CDex 2.19
#
DISCID=ba0df80f
DTITLE=Sons of Anarchy - Compilation - Songs of Anarchy: Music from Sons of Anarchy Seasons 1-4
DYEAR=2011
DGENRE=Compilation
TTITLE0=This Life
TTITLE1=Son Of A Preacher Man
TTITLE2=Forever Young
TTITLE3=John The Revelator
TTITLE4=Fortunate Son
TTITLE5=Slip Kid
TTITLE6=Girl From The North Country
TTITLE7=Someday Never Comes
TTITLE8=Gimme Shelter
TTITLE9=Bird On A Wire
TTITLE10=Hey Hey, My My
TTITLE11=What A Wonderful World
TTITLE12=Los Tiempos Van Cambiando (The Times They Are A-Changin')
TTITLE13=Strange Fruit
TTITLE14=House Of The Rising Sun
EXTD=YEAR: 2011
EXTT0=
EXTT1=
EXTT2=
EXTT3=
EXTT4=
EXTT5=
EXTT6=
EXTT7=
EXTT8=
EXTT9=
EXTT10=
EXTT11=
EXTT12=
EXTT13=
EXTT14=
PLAYORDER=
